<?xml version="1.0" encoding="UTF-8" standalone="no"?>
<svg
   fill="none"
   height="160"
   viewBox="0 0 160 160"
   width="160"
   version="1.1"
   id="svg17"
   sodipodi:docname="brand-signal.svg"
   inkscape:version="1.4.1 (93de688d07, 2025-03-30)"
   xmlns:inkscape="http://www.inkscape.org/namespaces/inkscape"
   xmlns:sodipodi="http://sodipodi.sourceforge.net/DTD/sodipodi-0.dtd"
   xmlns="http://www.w3.org/2000/svg"
   xmlns:svg="http://www.w3.org/2000/svg">
  <defs
     id="defs17">
    <linearGradient
       id="swatch17"
       inkscape:swatch="solid">
      <stop
         style="stop-color:#000000;stop-opacity:1;"
         offset="0"
         id="stop17" />
    </linearGradient>
  </defs>
  <sodipodi:namedview
     id="namedview17"
     pagecolor="#ffffff"
     bordercolor="#000000"
     borderopacity="0.25"
     inkscape:showpageshadow="2"
     inkscape:pageopacity="0.0"
     inkscape:pagecheckerboard="0"
     inkscape:deskcolor="#d1d1d1"
     inkscape:zoom="3.025"
     inkscape:cx="80"
     inkscape:cy="80"
     inkscape:window-width="1280"
     inkscape:window-height="692"
     inkscape:window-x="0"
     inkscape:window-y="0"
     inkscape:window-maximized="1"
     inkscape:current-layer="svg17" />
  <g
     id="g17"
     style="fill:#bdbdbd;fill-opacity:1;fill-rule:evenodd;stroke:#b6b6b6;stroke-width:0.5;stroke-dasharray:none;stroke-opacity:0"
     fill="#000"
     transform="matrix(0.80998176,0,0,0.80996801,15.20146,15.203534)">
    <path
       d="m 80,0 c 4.1505,0 8.2271,0.31607 12.2072,0.925452 L 91.0628,8.3387 C 87.4559,7.78644 83.7614,7.5 80,7.5 76.2388,7.5 72.5445,7.78641 68.9377,8.33862 L 67.7933,0.925375 C 71.7732,0.316043 75.8497,0 80,0 Z"
       id="path1"
       style="fill:#bdbdbd;fill-opacity:1;fill-rule:evenodd;stroke:#b6b6b6;stroke-width:0.5;stroke-dasharray:none;stroke-opacity:0" />
    <path
       d="m 98.9849,2.26619 -1.7798,7.28755 c 7.3099,1.77896 14.1849,4.66606 20.4389,8.47306 l 3.895,-6.411 C 114.638,7.41489 107.051,4.22922 98.9849,2.26619 Z"
       id="path2"
       style="fill:#bdbdbd;fill-opacity:1;fill-rule:evenodd;stroke:#b6b6b6;stroke-width:0.5;stroke-dasharray:none;stroke-opacity:0" />
    <path
       d="m 127.279,15.4591 -4.432,6.0507 c 5.977,4.3861 11.257,9.6664 15.643,15.6437 l 6.051,-4.4324 c -4.84,-6.5957 -10.666,-12.4222 -17.262,-17.262 z"
       id="path3"
       style="fill:#bdbdbd;fill-opacity:1;fill-rule:evenodd;stroke:#b6b6b6;stroke-width:0.5;stroke-dasharray:none;stroke-opacity:0" />
    <path
       d="m 148.384,38.4618 -6.411,3.8942 c 3.807,6.2541 6.694,13.1299 8.473,20.4395 l 7.288,-1.7798 c -1.963,-8.0657 -5.149,-15.6528 -9.35,-22.5539 z"
       id="path4"
       style="fill:#bdbdbd;fill-opacity:1;fill-rule:evenodd;stroke:#b6b6b6;stroke-width:0.5;stroke-dasharray:none;stroke-opacity:0" />
    <path
       d="m 159.075,67.7934 -7.414,1.1444 c 0.553,3.6067 0.839,7.301 0.839,11.0622 0,3.7614 -0.286,7.4559 -0.839,11.0628 l 7.414,1.1444 C 159.684,88.2271 160,84.1505 160,80 c 0,-4.1503 -0.316,-8.2267 -0.925,-12.2066 z"
       id="path5"
       style="fill:#bdbdbd;fill-opacity:1;fill-rule:evenodd;stroke:#b6b6b6;stroke-width:0.5;stroke-dasharray:none;stroke-opacity:0" />
    <path
       d="m 141.973,117.645 c 3.807,-6.255 6.694,-13.13 8.473,-20.44 l 7.288,1.7798 c -1.963,8.0662 -5.149,15.6532 -9.35,22.5542 z"
       id="path6"
       style="fill:#bdbdbd;fill-opacity:1;fill-rule:evenodd;stroke:#b6b6b6;stroke-width:0.5;stroke-dasharray:none;stroke-opacity:0" />
    <path
       d="m 138.49,122.847 6.051,4.432 c -4.84,6.596 -10.666,12.422 -17.262,17.262 l -4.433,-6.051 c 5.978,-4.386 11.258,-9.666 15.644,-15.643 z"
       id="path7"
       style="fill:#bdbdbd;fill-opacity:1;fill-rule:evenodd;stroke:#b6b6b6;stroke-width:0.5;stroke-dasharray:none;stroke-opacity:0" />
    <path
       d="m 117.644,141.973 3.894,6.411 c -6.901,4.201 -14.488,7.387 -22.5537,9.35 l -1.7798,-7.288 c 7.3095,-1.779 14.1855,-4.666 20.4395,-8.473 z"
       id="path8"
       style="fill:#bdbdbd;fill-opacity:1;fill-rule:evenodd;stroke:#b6b6b6;stroke-width:0.5;stroke-dasharray:none;stroke-opacity:0" />
    <path
       d="m 91.0622,151.661 1.1445,7.414 C 88.2268,159.684 84.1503,160 80,160 c -4.1505,0 -8.2272,-0.316 -12.2073,-0.925 l 1.1442,-7.413 c 3.6054,0.552 7.2997,0.838 11.0631,0.838 3.7612,0 7.4555,-0.286 11.0622,-0.839 z"
       id="path9"
       style="fill:#bdbdbd;fill-opacity:1;fill-rule:evenodd;stroke:#b6b6b6;stroke-width:0.5;stroke-dasharray:none;stroke-opacity:0" />
    <path
       d="m 62.7945,150.448 -1.7794,7.286 c -6.0589,-1.475 -11.8477,-3.639 -17.2785,-6.406 l -7.5927,1.772 -1.7042,-7.304 10.2604,-2.394 2.4408,1.243 c 4.9187,2.506 10.1623,4.467 15.6536,5.803 z"
       id="path10"
       style="fill:#bdbdbd;fill-opacity:1;fill-rule:evenodd;stroke:#b6b6b6;stroke-width:0.5;stroke-dasharray:none;stroke-opacity:0" />
    <path
       d="m 28.1097,147.273 1.7042,7.304 -13.0145,3.036 C 8.13861,159.634 0.365682,151.861 2.38654,143.201 l 3.03673,-13.015 7.30383,1.704 -3.03675,13.015 c -0.75782,3.248 2.15705,6.162 5.40485,5.405 z"
       id="path11"
       style="fill:#bdbdbd;fill-opacity:1;fill-rule:evenodd;stroke:#b6b6b6;stroke-width:0.5;stroke-dasharray:none;stroke-opacity:0" />
    <path
       d="M 14.2041,125.56 6.90027,123.856 8.6719,116.263 C 5.90526,110.832 3.74067,105.043 2.26605,98.9843 L 9.55191,97.2049 C 10.8879,102.696 12.849,107.94 15.3547,112.859 l 1.2435,2.441 z"
       id="path12"
       style="fill:#bdbdbd;fill-opacity:1;fill-rule:evenodd;stroke:#b6b6b6;stroke-width:0.5;stroke-dasharray:none;stroke-opacity:0" />
    <path
       d="M 8.33759,91.0624 0.925362,92.2066 C 0.316038,88.2267 0,84.1503 0,80 0,75.8495 0.316067,71.7729 0.925446,67.7928 L 8.33869,68.9372 C 7.78644,72.5442 7.5,76.2386 7.5,80 c 0,3.7631 0.28613,7.4572 0.83759,11.0624 z"
       id="path13"
       style="fill:#bdbdbd;fill-opacity:1;fill-rule:evenodd;stroke:#b6b6b6;stroke-width:0.5;stroke-dasharray:none;stroke-opacity:0" />
    <path
       d="M 9.55373,62.795 2.26618,61.0152 C 4.2292,52.9495 7.41488,45.3624 11.6158,38.4613 l 6.411,3.8942 c -3.807,6.2541 -6.6941,13.1299 -8.47307,20.4395 z"
       id="path14"
       style="fill:#bdbdbd;fill-opacity:1;fill-rule:evenodd;stroke:#b6b6b6;stroke-width:0.5;stroke-dasharray:none;stroke-opacity:0" />
    <path
       d="M 21.5098,37.1531 15.4591,32.7207 C 20.2989,26.125 26.1254,20.2986 32.7211,15.4588 l 4.4324,6.0507 c -5.9773,4.3861 -11.2576,9.6663 -15.6437,15.6436 z"
       id="path15"
       style="fill:#bdbdbd;fill-opacity:1;fill-rule:evenodd;stroke:#b6b6b6;stroke-width:0.5;stroke-dasharray:none;stroke-opacity:0" />
    <path
       d="M 42.356,18.0266 38.4617,11.6155 C 45.3628,7.41468 52.9499,4.22905 61.0157,2.26606 l 1.7798,7.28755 C 55.4859,11.3326 48.6101,14.2195 42.356,18.0266 Z"
       id="path16"
       style="fill:#bdbdbd;fill-opacity:1;fill-rule:evenodd;stroke:#b6b6b6;stroke-width:0.5;stroke-dasharray:none;stroke-opacity:0" />
    <path
       d="m 145,80 c 0,35.899 -29.101,65 -65,65 -11.3866,0 -22.0893,-2.928 -31.3965,-8.072 -0.8961,-0.495 -1.9417,-0.658 -2.9389,-0.426 l -28.9134,6.747 6.7465,-28.914 c 0.2326,-0.997 0.0692,-2.043 -0.426,-2.939 C 17.9278,102.089 15,91.3865 15,80 15,44.1015 44.1015,15 80,15 c 35.899,0 65,29.1015 65,65 z"
       id="path17"
       style="fill:#bdbdbd;fill-opacity:1;fill-rule:evenodd;stroke:#b6b6b6;stroke-width:0.5;stroke-dasharray:none;stroke-opacity:0" />
  </g>
</svg>
